<svg xmlns="http://www.w3.org/2000/svg" viewBox="-62.08 0 404.16 404.16">
  <g fill="none" stroke-width="4" stroke="#010">
    <path stroke-linejoin="bevel" d="M298.6 156.6l27.93-27.9M284.47 142.47l27.92-27.92M270.33 128.33l27.9-27.92 42.44 42.44-27.92 27.9zM185.47 43.47l27.92-27.9M199.62 57.6l27.9-27.9M213.76 71.76l27.9-27.92-42.4-42.43-27.93 27.93zM240 70.08l-54.7-54.7m86.7 86.7l54.7 54.7"/>
    <circle r="22" cy="86.080002" cx="256" />
  </g>
  <g fill="#010">
    <path d="M164 62.08a116 116 0 0 0 116 116v-34a82 82 0 0 1-82-82h-34zm4.2 4h26c2.05 44.25 37.55 79.75 81.8 81.8v26c-58.7-2.07-105.72-49.1-107.8-107.8z"/>
    <path d="M104 62.08a175 175 0 0 0 175 175v-35a140 140 0 0 1-140-140h-35zm4.2 4h27c2.1 76.28 63.52 137.7 139.8 139.8v27c-91.28-2.1-164.68-75.52-166.8-166.8z"/>
    <g transform="rotate(180 106 192.54)">
      <circle cx="-188" cy="-67" r="24" transform="scale(-1)"/>
      <path d="M96 43h34a82 82 0 0 0 82 82v34A116 116 0 0 1 96 43z"/>
      <path d="M72 43a140 140 0 0 0 140 140v35A175 175 0 0 1 37 43z"/>
    </g>
  </g>
</svg>

